<svg width="126" height="199" viewBox="0 0 126 199" fill="none" xmlns="http://www.w3.org/2000/svg">
<path d="M86.3125 98.1875L81.8125 90.75V44.5H86.3125V98.1875ZM95.3125 112.938L90.8125 105.375V44.5H95.3125V112.938ZM104.312 127.875L99.8125 120.25V44.5H104.312V127.875ZM39.8125 94.3125L44.3125 101.75V148H39.8125V94.3125ZM30.8125 79.5625L35.3125 87.125V148H30.8125V79.5625ZM21.8125 64.625L26.3125 72.25V148H21.8125V64.625ZM23.375 44.5H28.625L92.25 148H87L23.375 44.5ZM34 44.5H39.3125L102.875 148H97.5L34 44.5ZM44.5625 44.5H49.8125L108.812 140.688V44.5H113.312V148C113.312 148 111.542 148 108 148L44.5625 44.5ZM17.3125 51.8125V148H12.8125V44.5C12.8125 44.5 14.6042 44.5 18.1875 44.5L81.625 148H76.4375L17.3125 51.8125Z" fill="#67C176"/>
<rect x="2.5" y="34.5" width="121" height="121" rx="3.5" stroke="#67C176" stroke-width="5"/>
</svg>
